<svg xmlns="http://www.w3.org/2000/svg" viewBox="0 0 512 512">
  <defs>
    <linearGradient id="vl-bg" x1="0" y1="0" x2="0.85" y2="1">
      <stop offset="0" stop-color="#1F2750"/>
      <stop offset="0.55" stop-color="#121731"/>
      <stop offset="1" stop-color="#080A14"/>
    </linearGradient>
    <radialGradient id="vl-aura" cx="0.5" cy="0.7" r="0.62">
      <stop offset="0" stop-color="#7C5CFF" stop-opacity="0.6"/>
      <stop offset="0.5" stop-color="#3B82F6" stop-opacity="0.16"/>
      <stop offset="1" stop-color="#3B82F6" stop-opacity="0"/>
    </radialGradient>
    <linearGradient id="vl-beam" x1="0.12" y1="0.1" x2="0.88" y2="0.9">
      <stop offset="0" stop-color="#22E4FF"/>
      <stop offset="0.5" stop-color="#7B7CFF"/>
      <stop offset="1" stop-color="#D66BFF"/>
    </linearGradient>
    <linearGradient id="vl-rim" x1="0" y1="0" x2="0" y2="1">
      <stop offset="0" stop-color="#FFFFFF" stop-opacity="0.3"/>
      <stop offset="0.4" stop-color="#FFFFFF" stop-opacity="0.05"/>
      <stop offset="1" stop-color="#FFFFFF" stop-opacity="0"/>
    </linearGradient>
    <filter id="vl-glow" x="-40%" y="-40%" width="180%" height="180%">
      <feGaussianBlur stdDeviation="18"/>
    </filter>
    <clipPath id="vl-shape">
      <path d="M256 0C456 0 512 56 512 256C512 456 456 512 256 512C56 512 0 456 0 256C0 56 56 0 256 0Z"/>
    </clipPath>
  </defs>
  <g clip-path="url(#vl-shape)">
    <rect width="512" height="512" fill="url(#vl-bg)"/>
    <rect width="512" height="512" fill="url(#vl-aura)"/>
    <path d="M148 150 L244 354 Q262 390 280 354 L342 226" fill="none" stroke="url(#vl-beam)" stroke-width="80" stroke-linecap="round" stroke-linejoin="round" filter="url(#vl-glow)" opacity="0.9"/>
    <path d="M148 150 L244 354 Q262 390 280 354 L342 226" fill="none" stroke="url(#vl-beam)" stroke-width="60" stroke-linecap="round" stroke-linejoin="round"/>
    <path d="M148 150 L244 354 Q262 390 280 354 L342 226" fill="none" stroke="#FFFFFF" stroke-opacity="0.6" stroke-width="16" stroke-linecap="round" stroke-linejoin="round"/>
    <circle cx="384" cy="148" r="50" fill="#B8A4FF" opacity="0.5" filter="url(#vl-glow)"/>
    <path d="M384 82C390 121 399 133 438 139C399 145 390 157 384 196C378 157 369 145 330 139C369 133 378 121 384 82Z" fill="#FFFFFF"/>
  </g>
  <path d="M256 2C454 2 510 58 510 256C510 454 454 510 256 510C58 510 2 454 2 256C2 58 58 2 256 2Z" fill="none" stroke="url(#vl-rim)" stroke-width="4"/>
</svg>
